<svg width="50" height="50" viewBox="0 0 50 50" fill="none" xmlns="http://www.w3.org/2000/svg">
<g clip-path="url(#clip0_25_53)">
<path d="M49.5928 13.8672C49.4495 13.6636 49.2594 13.4975 49.0384 13.3828C48.8175 13.268 48.5723 13.2081 48.3233 13.2079H15.1624L12.6523 4.55165C11.6679 1.14305 9.32877 0.775085 8.3694 0.775085H1.67643C0.818567 0.775085 0.124817 1.46962 0.124817 2.32665C0.124817 3.18368 0.819348 3.87816 1.67638 3.87816H8.36857C8.58029 3.87816 9.22638 3.87816 9.66705 5.40082L18.3022 37.136C18.4897 37.8055 19.0999 38.268 19.7959 38.268H40.8881C41.5428 38.268 42.1272 37.8578 42.3483 37.2414L49.7827 15.2844C49.9538 14.8086 49.8827 14.2789 49.5928 13.8672H49.5928ZM39.7962 35.1657H20.9736L16.0345 16.3118H46.1173L39.7962 35.1657ZM36.7189 41.4126C34.5611 41.4126 32.8127 43.161 32.8127 45.3188C32.8127 47.4766 34.5611 49.2251 36.7189 49.2251C38.8767 49.2251 40.6252 47.4766 40.6252 45.3188C40.6252 43.161 38.8767 41.4126 36.7189 41.4126ZM22.6564 41.4126C20.4986 41.4126 18.7502 43.161 18.7502 45.3188C18.7502 47.4766 20.4986 49.2251 22.6564 49.2251C24.8142 49.2251 26.5627 47.4766 26.5627 45.3188C26.5627 43.161 24.8142 41.4126 22.6564 41.4126Z" fill="#E31212"/>
</g>
<defs>
<clipPath id="clip0_25_53">
<rect width="50" height="50" fill="white"/>
</clipPath>
</defs>
</svg>
