<svg width="40" height="36" viewBox="0 0 40 36" fill="none" xmlns="http://www.w3.org/2000/svg">
<path d="M5.41663 18V1.33337M34.5833 34.6667V28.4167M5.41663 34.6667V26.3334M34.5833 20.0834V1.33337M20 7.58337V1.33337M20 34.6667V15.9167" stroke="#B39B9B" stroke-width="2.08333" stroke-linecap="round"/>
<path d="M5.41667 26.3333C7.71785 26.3333 9.58333 24.4679 9.58333 22.1667C9.58333 19.8655 7.71785 18 5.41667 18C3.11548 18 1.25 19.8655 1.25 22.1667C1.25 24.4679 3.11548 26.3333 5.41667 26.3333Z" stroke="#B39B9B" stroke-width="2.08333" stroke-linecap="round"/>
<path d="M20 15.9167C22.3012 15.9167 24.1667 14.0512 24.1667 11.75C24.1667 9.44885 22.3012 7.58337 20 7.58337C17.6989 7.58337 15.8334 9.44885 15.8334 11.75C15.8334 14.0512 17.6989 15.9167 20 15.9167Z" stroke="#B39B9B" stroke-width="2.08333" stroke-linecap="round"/>
<path d="M34.5833 28.4167C36.8845 28.4167 38.75 26.5512 38.75 24.25C38.75 21.9489 36.8845 20.0834 34.5833 20.0834C32.2821 20.0834 30.4166 21.9489 30.4166 24.25C30.4166 26.5512 32.2821 28.4167 34.5833 28.4167Z" stroke="#B39B9B" stroke-width="2.08333" stroke-linecap="round"/>
</svg>
