<svg width="40" height="36" viewBox="0 0 40 36" fill="none" xmlns="http://www.w3.org/2000/svg">
<path d="M36.6666 29.4583C37.4692 29.4587 38.2408 29.7679 38.8216 30.3217C39.4024 30.8755 39.7479 31.6315 39.7865 32.4332C39.8251 33.2348 39.5537 34.0205 39.0288 34.6275C38.5038 35.2345 37.7654 35.6163 36.9666 35.6937L36.6666 35.7083H3.33331C2.53078 35.7079 1.75916 35.3988 1.17834 34.845C0.597524 34.2912 0.252038 33.5351 0.213471 32.7335C0.174904 31.9319 0.446213 31.1462 0.971178 30.5392C1.49614 29.9321 2.23452 29.5504 3.03331 29.4729L3.33331 29.4583H36.6666ZM36.6666 14.875C37.4954 14.875 38.2903 15.2042 38.8764 15.7903C39.4624 16.3763 39.7916 17.1712 39.7916 18C39.7916 18.8288 39.4624 19.6236 38.8764 20.2097C38.2903 20.7958 37.4954 21.125 36.6666 21.125H3.33331C2.50451 21.125 1.70966 20.7958 1.1236 20.2097C0.537553 19.6236 0.208313 18.8288 0.208313 18C0.208313 17.1712 0.537553 16.3763 1.1236 15.7903C1.70966 15.2042 2.50451 14.875 3.33331 14.875H36.6666ZM36.6666 0.291656C37.4954 0.291656 38.2903 0.620897 38.8764 1.20695C39.4624 1.793 39.7916 2.58786 39.7916 3.41666C39.7916 4.24546 39.4624 5.04031 38.8764 5.62637C38.2903 6.21242 37.4954 6.54166 36.6666 6.54166H3.33331C2.50451 6.54166 1.70966 6.21242 1.1236 5.62637C0.537553 5.04031 0.208313 4.24546 0.208313 3.41666C0.208313 2.58786 0.537553 1.793 1.1236 1.20695C1.70966 0.620897 2.50451 0.291656 3.33331 0.291656H36.6666Z" fill="#E31212"/>
</svg>
