<svg width="44" height="36" viewBox="0 0 44 36" fill="none" xmlns="http://www.w3.org/2000/svg">
<path d="M43.7917 4.50016C42.1875 5.22933 40.4583 5.7085 38.6667 5.93766C40.5 4.8335 41.9167 3.0835 42.5833 0.979329C40.8542 2.021 38.9375 2.75016 36.9167 3.16683C35.2708 1.37516 32.9583 0.333496 30.3333 0.333496C25.4375 0.333496 21.4375 4.3335 21.4375 9.271C21.4375 9.97933 21.5208 10.6668 21.6667 11.3127C14.25 10.9377 7.64583 7.37516 3.25 1.97933C2.47917 3.29183 2.04167 4.8335 2.04167 6.4585C2.04167 9.56266 3.60417 12.3127 6.02083 13.8752C4.54167 13.8752 3.16667 13.4585 1.95833 12.8335V12.896C1.95833 17.2293 5.04167 20.8543 9.125 21.6668C7.81401 22.0256 6.4377 22.0755 5.10417 21.8127C5.67001 23.5887 6.7782 25.1427 8.27295 26.2563C9.7677 27.3699 11.5738 27.987 13.4375 28.021C10.2784 30.5219 6.36249 31.8737 2.33333 31.8543C1.625 31.8543 0.916667 31.8127 0.208334 31.7293C4.16667 34.271 8.875 35.7502 13.9167 35.7502C30.3333 35.7502 39.3542 22.1252 39.3542 10.3127C39.3542 9.91683 39.3542 9.54183 39.3333 9.146C41.0833 7.89599 42.5833 6.31266 43.7917 4.50016Z" fill="#E31212"/>
</svg>
