<svg width="42" height="34" viewBox="0 0 42 34" fill="none" xmlns="http://www.w3.org/2000/svg">
<path fill-rule="evenodd" clip-rule="evenodd" d="M21 0.333496C22.7812 0.333496 24.6083 0.37933 26.3792 0.45433L28.4708 0.554329L30.4729 0.67308L32.3479 0.800163L34.0604 0.933496C35.9188 1.07574 37.6676 1.8688 38.999 3.17316C40.3304 4.47752 41.1592 6.20962 41.3396 8.06475L41.4229 8.95016L41.5792 10.846C41.725 12.8106 41.8333 14.9522 41.8333 17.0002C41.8333 19.0481 41.725 21.1897 41.5792 23.1543L41.4229 25.0502C41.3958 25.3543 41.3687 25.6481 41.3396 25.9356C41.1591 27.791 40.3301 29.5234 38.9982 30.8278C37.6664 32.1322 35.9171 32.9251 34.0583 33.0668L32.35 33.1981L30.475 33.3272L28.4708 33.446L26.3792 33.546C24.5871 33.6239 22.7937 33.6642 21 33.6668C19.2063 33.6642 17.4128 33.6239 15.6208 33.546L13.5292 33.446L11.5271 33.3272L9.65208 33.1981L7.93958 33.0668C6.08114 32.9246 4.3324 32.1315 3.00098 30.8272C1.66957 29.5228 0.840777 27.7907 0.660414 25.9356L0.577081 25.0502L0.420831 23.1543C0.261534 21.1067 0.176756 19.054 0.166664 17.0002C0.166664 14.9522 0.274997 12.8106 0.420831 10.846L0.577081 8.95016C0.604164 8.646 0.631247 8.35225 0.660414 8.06475C0.840707 6.20995 1.6692 4.47811 3.00019 3.17379C4.33118 1.86948 6.07943 1.07621 7.9375 0.933496L9.64791 0.800163L11.5229 0.67308L13.5271 0.554329L15.6187 0.45433C17.4115 0.376481 19.2056 0.336195 21 0.333496ZM16.8333 11.9481V22.0522C16.8333 23.0147 17.875 23.6147 18.7083 23.1356L27.4583 18.0835C27.6487 17.9739 27.8069 17.816 27.9169 17.6259C28.0268 17.4357 28.0847 17.2199 28.0847 17.0002C28.0847 16.7805 28.0268 16.5647 27.9169 16.3745C27.8069 16.1843 27.6487 16.0264 27.4583 15.9168L18.7083 10.8668C18.5182 10.7571 18.3026 10.6993 18.0831 10.6994C17.8636 10.6994 17.648 10.7572 17.458 10.867C17.2679 10.9768 17.1101 11.1347 17.0005 11.3249C16.8908 11.515 16.8332 11.7307 16.8333 11.9502V11.9481Z" fill="#E31212"/>
</svg>
