<svg width="50" height="50" viewBox="0 0 50 50" fill="none" xmlns="http://www.w3.org/2000/svg">
<path d="M25.1597 1.9245L22.9512 5.63182H27.368L25.1597 1.9245ZM14.9028 7.45751V9.77225H35.417V7.45751H14.9028ZM18.9434 11.5981C20.7586 13.6354 21.8965 16.0556 22.7487 18.6419C23.2315 18.4555 23.7344 18.326 24.2472 18.2559V13.3175H26.0724V18.2557C26.5766 18.3244 27.0714 18.4505 27.547 18.6316C28.3897 16.0545 29.5241 13.64 31.3563 11.5981H18.9434ZM7.70488 14.6689V35.1807H10.0151V14.6689H7.70488ZM40.3048 14.6689V35.1807H42.615V14.6689H40.3048ZM38.4791 18.7031C36.4433 20.5168 34.0255 21.6543 31.4416 22.5063C31.6288 22.9894 31.7591 23.4928 31.8297 24.006H36.7611V25.8312H31.8314C31.7631 26.3365 31.6371 26.8323 31.4558 27.3088C34.0292 28.1513 36.4399 29.2848 38.4792 31.1141L38.4791 18.7031ZM11.8409 18.7041V31.1138C13.8808 29.284 16.2921 28.1506 18.8661 27.3081C18.6849 26.8318 18.559 26.3363 18.4907 25.8312H13.5585V24.006H18.4924C18.563 23.493 18.6932 22.9899 18.8803 22.507C16.2958 21.655 13.8773 20.5178 11.841 18.7043L11.8409 18.7041ZM25.162 20.0256C22.464 20.0256 20.2571 22.2324 20.2571 24.9306C20.2571 27.6285 22.464 29.8352 25.162 29.8352C27.8601 29.8352 30.0668 27.6285 30.0668 24.9305C30.0668 22.2322 27.8601 20.0256 25.162 20.0256ZM25.162 21.8508C26.8737 21.8508 28.2416 23.2189 28.2416 24.9306C28.2416 26.6421 26.8737 28.01 25.162 28.01C23.4504 28.01 22.0822 26.6421 22.0822 24.9305C22.0822 23.2185 23.4504 21.8506 25.1621 21.8506L25.162 21.8508ZM5.8793 22.7064L2.16543 24.9187L5.8793 27.1308V22.7064ZM44.4408 22.7068V27.1305L48.154 24.9187L44.4407 22.7068H44.4408ZM22.7448 31.207C21.8933 33.7878 20.7567 36.2025 18.9458 38.2363H31.3536C29.5258 36.1982 28.3927 33.7891 27.5506 31.2176C27.0739 31.3996 26.5779 31.5262 26.0723 31.595V36.5198H24.2474V31.5947C23.7331 31.5244 23.2289 31.3943 22.7448 31.207ZM14.9026 40.0619V42.3767H35.4171V40.0619H14.9027H14.9026ZM22.9495 44.2025L25.1595 47.9128L27.3698 44.2024L22.9495 44.2025Z" fill="#E31212"/>
</svg>
