<svg width="50" height="50" viewBox="0 0 50 50" fill="none" xmlns="http://www.w3.org/2000/svg">
<path fill-rule="evenodd" clip-rule="evenodd" d="M26.4729 32.7229C26.0822 33.1134 25.5524 33.3328 24.9999 33.3328C24.4475 33.3328 23.9177 33.1134 23.527 32.7229L11.7416 20.9374C11.5426 20.7453 11.3839 20.5154 11.2747 20.2612C11.1655 20.007 11.1081 19.7337 11.1057 19.457C11.1033 19.1804 11.156 18.9061 11.2607 18.65C11.3655 18.394 11.5202 18.1614 11.7158 17.9658C11.9114 17.7702 12.144 17.6155 12.4 17.5107C12.6561 17.406 12.9304 17.3533 13.207 17.3557C13.4837 17.3581 13.757 17.4155 14.0112 17.5247C14.2654 17.6339 14.4953 17.7926 14.6874 17.9916L24.9999 28.3041L35.3124 17.9916C35.7054 17.6121 36.2316 17.4021 36.7779 17.4069C37.3241 17.4116 37.8466 17.6307 38.2329 18.017C38.6192 18.4033 38.8383 18.9258 38.843 19.472C38.8478 20.0183 38.6378 20.5445 38.2583 20.9374L26.4729 32.7229Z" fill="#B39B9B"/>
</svg>
